<svg xmlns="http://www.w3.org/2000/svg" xml:space="preserve" width="2208.841" height="719.333" viewBox="0 0 584.422 190.324"><g style="display:inline"><path d="M103.885 32.447c-6.23.145-12.654.742-18.395 3.415-3.65 1.53-6.653 4.892-7.472 8.841-.4 1.921-.247 3.95.3 5.824.508 1.6 1.712 2.995 3.311 3.547.77.747.468 1.95.587 2.92.107 7.433-.104 14.867-.362 22.294-.458 10.724-1.378 21.463-3.487 32-.594 2.682-1.607 5.34-3.482 7.4-10.323 12.588-20.988 24.976-29.372 38.972-5.016 8.5-9.521 17.595-11.224 27.419-.646 3.815-.9 7.841-.318 11.652.83 5.862 3.34 11.455 7.44 15.756 2.818 3.03 6.163 5.58 9.732 7.585 1.604.857 3.171 1.714 4.937 2.223 4.246.447 8.522.113 12.78.288 28.08.23 56.164.295 84.243-.116 1.514-.086 3.128.092 4.497-.688 6.79-2.977 13.018-7.833 16.895-14.26 2.9-4.77 4.102-10.425 4.043-15.918-.033-2.866-.365-5.562-.995-8.39-2.354-10.832-7.734-20.699-13.637-29.972-8.289-12.902-18.487-24.403-28.003-36.383-1.987-3.258-2.355-7.15-3.067-10.819-2.002-12.204-2.454-24.592-2.812-36.934-.077-4.592-.202-9.195.091-13.78.024-.598.202-1.325.899-1.415 2.093-.772 3.02-3.076 3.28-5.133.657-4.428-1.475-9.073-5.19-11.545-2.122-1.423-4.68-2.421-7.188-3.125-4.9-1.31-9.985-1.56-15.01-1.66-1.007-.008-2.014.002-3.021.002" style="display:inline;opacity:1;fill:#c9cee2;fill-opacity:1;stroke:none;stroke-width:3.46501;stroke-linecap:round;stroke-linejoin:round" transform="translate(-33.645 -32.442)"/><path d="M133.705 140.19c-9.23.163-22.25 5.357-25.275 6.615 7.052 2.992 14.479 5.813 23.12 5.685 19.376-.288 19.238-3.178 19.236-3.196-.01-.016-6.587-9.291-17.081-9.105" style="display:inline;opacity:.419718;mix-blend-mode:darken;fill:#6ebae2;fill-opacity:1;fill-rule:nonzero;stroke-width:3.50018;stroke-linecap:round;stroke-linejoin:round" transform="translate(-33.645 -32.442)"/><path d="M150.788 149.29s.2 2.91-19.238 3.2c-19.438.289-32.857-14.289-49.245-12.365a24.6 24.6 0 0 0-9.336 1.887c-3.666 1.491-6.906 3.923-9.484 6.916-3.942 4.27-7.135 9.247-10.114 14.248-3.661 6.113-6.865 12.574-8.756 19.469-.7 2.704-1.324 5.617-1.4 8.419-.198 4.949 1.088 10.116 4.365 13.93 2.693 3.303 6.21 5.958 10.144 7.59 2.99.813 6.114.22 9.163.435 28.864.226 57.735.333 86.597-.101 2.272-.334 4.043-1.95 5.947-3.098 4.495-3.12 8.207-7.767 9.143-13.265.985-5.186.095-10.552-1.471-15.485-2.409-7.262-5.657-14.227-9.3-20.946-5.3-9.465-7.015-10.833-7.015-10.833" style="display:inline;opacity:1;fill:#6ebae2;fill-opacity:1;stroke:none;stroke-width:3.46501;stroke-linecap:round;stroke-linejoin:round" transform="translate(-33.645 -32.442)"/><path d="M106.906 32.445c-1.007-.008-2.014.002-3.021.002-6.23.145-12.653.742-18.395 3.415-2.984 1.25-5.514 3.737-6.794 6.757 5.162 3.802 13.954 5.99 26.565 5.802 12.565-.187 22.404-2.21 28.18-5.876-.905-2.135-2.397-4.024-4.337-5.315-2.122-1.423-4.68-2.421-7.188-3.125-4.9-1.31-9.985-1.56-15.01-1.66m-5.891 4.21h10.564c9.892.837 16.287 3.86 14.95 7.067a3 3 0 0 1-.278.455c-1.604-2.367-7.271-4.25-14.672-4.876h-10.564c-7.411.63-13.076 2.52-14.662 4.892a3 3 0 0 1-.288-.471c-1.338-3.207 5.058-6.23 14.95-7.067m-20.06 17.081c.222.12.434.255.675.338.77.747.467 1.95.586 2.92.107 7.433-.104 14.867-.362 22.295-.458 10.723-1.377 21.462-3.487 31.998-.594 2.683-1.607 5.342-3.483 7.4-10.322 12.59-20.988 24.976-29.372 38.973-2.45 4.154-4.773 8.452-6.713 12.905l-4.582 15.028c-.583 3.663-.802 7.496-.246 11.138.072.513.174 1.02.272 1.529l35.897-.625c43.704-.76 58.355-1.112 67.986-10.93 13.305-13.56 12.839-39.981-19.216-80.216-5.134-6.443 1.278-49.866 1.278-49.866s-21.446 6.015-37.998-2.338c-.448-.226-.818-.36-1.234-.549" style="opacity:.250704;mix-blend-mode:color-dodge;fill:#fff;fill-opacity:1;fill-rule:nonzero;stroke:none;stroke-width:3.46501;stroke-linecap:round;stroke-linejoin:round;stroke-opacity:1" transform="translate(-33.645 -32.442)"/></g><g style="display:inline"><path d="M94.551 72.585c3.511-.973 5.28-3.667 6.345-6.786.952 3.12 3.606 5.608 6.598 6.31-2.993.916-5.147 3.105-6.292 6.537-1.144-3.557-3.408-5.088-6.65-6.06" style="display:inline;fill:#fff;fill-opacity:1;stroke:#fff;stroke-width:1.52953;stroke-linecap:round;stroke-linejoin:round;stroke-dasharray:none;stroke-opacity:1;paint-order:fill markers stroke" transform="translate(-33.645 -32.442)"/><path d="M125.096 186.515c5.738-1.59 8.629-5.994 10.37-11.092 1.555 5.099 5.894 9.167 10.784 10.314-4.89 1.497-8.413 5.075-10.284 10.685-1.87-5.814-5.57-8.317-10.87-9.907" style="opacity:1;fill:#fff;fill-opacity:1;stroke:#fff;stroke-width:2.5;stroke-linecap:round;stroke-linejoin:round;stroke-dasharray:none;stroke-opacity:1;paint-order:fill markers stroke" transform="translate(-33.645 -32.442)"/><path d="M85.244 150.531c-1.712 3-3.986 5.724-6.84 7.698 2.961 1.614 5.568 3.91 7.435 6.727 1.75-2.925 4.103-5.509 6.936-7.415a23.6 23.6 0 0 1-7.436-7.18l-.065.117z" style="fill:#fff;fill-opacity:1;stroke:#fff;stroke-width:3.35043;stroke-linecap:round;stroke-linejoin:round;stroke-dasharray:none;stroke-opacity:1;paint-order:fill markers stroke" transform="translate(-33.645 -32.442)"/><path d="M114.88 114.89c3.682-1.02 5.537-3.846 6.655-7.117.998 3.272 3.782 5.882 6.92 6.619-3.139.96-5.399 3.256-6.6 6.856-1.2-3.73-3.574-5.337-6.975-6.357" style="fill:#fff;fill-opacity:1;stroke:#fff;stroke-width:1.60431;stroke-linecap:round;stroke-linejoin:round;stroke-dasharray:none;stroke-opacity:1;paint-order:fill markers stroke" transform="translate(-33.645 -32.442)"/></g><text xml:space="preserve" x="180.638" y="142.497" style="font-size:141.111px;font-family:Arial;-inkscape-font-specification:Arial;display:inline;fill:#9c7dd3;stroke:#fff;stroke-width:5;stroke-linecap:round;stroke-linejoin:round;stroke-dasharray:none;paint-order:fill markers stroke"><tspan x="180.638" y="142.497" style="font-style:normal;font-variant:normal;font-weight:400;font-stretch:normal;font-size:141.111px;font-family:Calibri;-inkscape-font-specification:Calibri;fill:#9c7dd3;fill-opacity:1;stroke:#000;stroke-width:5;stroke-linecap:round;stroke-linejoin:round;stroke-dasharray:none;stroke-opacity:1"><tspan style="font-style:normal;font-variant:normal;font-weight:400;font-stretch:normal;font-size:141.111px;font-family:Calibri;-inkscape-font-specification:Calibri;fill:#6ebae2;fill-opacity:1;stroke:#6ebae2;stroke-width:5;stroke-dasharray:none;stroke-opacity:1">TS</tspan><tspan style="font-style:normal;font-variant:normal;font-weight:400;font-stretch:normal;font-size:141.111px;font-family:Calibri;-inkscape-font-specification:Calibri;fill:#c9cee2;fill-opacity:1;stroke:#c9cee2;stroke-width:5;stroke-linecap:round;stroke-linejoin:round;stroke-dasharray:none;stroke-opacity:1">Flow</tspan></tspan></text></svg>